<svg width="6281" height="1547" viewBox="0 0 6281 1547" fill="none" xmlns="http://www.w3.org/2000/svg">
<path d="M3656.12 401.969H3321.43C3307.96 401.969 3294.8 406.497 3284.13 414.908L3162.18 511.195V401.969H3041.85V1147.9H3162.18V664.414L3342.35 522.193H3596.06V1147.9H3716.4V462.135C3716.4 428.925 3689.44 401.969 3656.23 401.969H3656.12Z" fill="white"/>
<path d="M2861.45 401.969H2741.12V1148.01H2861.45V401.969Z" fill="white"/>
<path d="M5365.89 401.963H5031.2C5017.72 401.963 5004.57 406.492 4993.9 414.902L4871.95 511.19V401.963H4751.61V1147.89H4871.95V664.408L5052.01 522.188H5305.72V644.676H5426.06V462.022C5426.06 428.812 5399.1 401.855 5365.89 401.855V401.963Z" fill="white"/>
<path d="M4511.06 401.969H3956.95C3923.74 401.969 3896.78 428.925 3896.78 462.135V1087.84C3896.78 1121.05 3923.74 1148.01 3956.95 1148.01H4571.22V1027.67H4017.11V835.208H4511.06C4544.27 835.208 4571.22 808.252 4571.22 775.042V462.243C4571.22 429.033 4544.27 402.077 4511.06 402.077V401.969ZM4450.89 714.768H4017.11V522.301H4450.89V714.768Z" fill="white"/>
<path d="M6281 462.135C6281 428.925 6254.04 401.969 6220.83 401.969H5666.72C5633.51 401.969 5606.56 428.925 5606.56 462.135V644.143H5726.89V522.301H6160.67V714.768H5666.72C5633.51 714.768 5606.56 741.724 5606.56 774.934V1087.73C5606.56 1120.94 5633.51 1147.9 5666.72 1147.9H5989.77C6003.35 1147.9 6016.51 1143.26 6027.18 1134.85L6160.67 1028.75V1147.9H6281V462.135ZM5968.85 1027.68H5726.89V835.208H6160.67V875.211L5968.85 1027.68Z" fill="white"/>
<path d="M2560.62 1027.57H2006.51V401.969H1886.18V1148.22L2560.62 1147.9V1027.57Z" fill="white"/>
<path d="M773.318 0C346.225 0 0 346.225 0 773.318C0 1200.41 346.225 1546.64 773.318 1546.64C1200.41 1546.64 1546.64 1200.41 1546.64 773.318C1546.64 346.225 1200.41 0 773.318 0ZM555.728 396.363H991.016L1050.86 500.091H495.778L555.62 396.363H555.728ZM995.006 773.318L884.378 964.923H662.367L551.739 773.318L662.582 581.39H884.27L995.113 773.318H995.006ZM328.326 1103.8L137.476 773.318L328.434 442.62L379.866 531.683L240.341 773.318L379.758 1014.74L328.326 1103.8ZM338.03 773.318L448.874 581.39H568.667L457.823 773.318L568.451 964.923H448.658L338.03 773.318ZM990.908 1150.27H555.728L495.67 1046.22H615.463L615.679 1046.55H931.173L931.389 1046.22H1051.18L991.124 1150.27H990.908ZM978.077 964.923L1088.71 773.318L977.862 581.39H1097.65L1208.5 773.318L1097.87 964.923H978.077ZM1218.2 1103.8L1166.77 1014.74L1306.19 773.318L1166.66 531.683L1218.09 442.62L1409.05 773.318L1218.2 1103.8Z" fill="white"/>
</svg>
